<svg id="Layer_1" data-name="Layer 1" xmlns="http://www.w3.org/2000/svg" viewBox="0 0 150 150"><defs><style>.cls-1{fill:#a4a4a5;}.cls-2{fill:#989898;}</style></defs><title>15all donation</title><path class="cls-1" d="M49.36,69.45c0,.29,0,.58,0,.87s0,.58-.07.87-.1.85-.18,1.26-.18.91-.3,1.35a16,16,0,0,1-.86,2.47l-.15.34c-.19.39-.39.78-.6,1.16l-.19.34a17.42,17.42,0,0,1-2.89,3.62l-.32.3-.57.49-.39.31c-.29.23-.58.45-.88.65l-.14.09q-.6.41-1.23.75c-.38.21-.78.41-1.18.59l-.07,0a16,16,0,0,1-2.46.88l-.54.14a16.37,16.37,0,0,1-2.63.41l-.87,0H32l-.87,0A16.2,16.2,0,0,1,28.45,86l-.54-.14a16,16,0,0,1-2.46-.88l-.08,0c-.35-.16-.7-.34-1.05-.52s-.92-.53-1.35-.82l-.14-.09c-.3-.2-.59-.42-.88-.65l-.39-.31L21,82l-.61-.58a17.22,17.22,0,0,1-2.6-3.34l-.19-.34c-.21-.38-.41-.77-.6-1.16l-.15-.34A16,16,0,0,1,16,73.8q-.18-.66-.3-1.35c-.08-.41-.14-.84-.18-1.26s-.05-.58-.07-.87,0-.58,0-.87.06-.58.08-.87.08-.36.08-.53h0c0-.11,0-.22,0-.33s0-.21,0-.32c0-.32.07-.63.13-1s.18-.9.29-1.34a17.16,17.16,0,0,1,.86-2.47l.08-.17c0-.06,0-.11.07-.17.19-.4.39-.78.6-1.16l.19-.34a17.42,17.42,0,0,1,2.89-3.62l.32-.3.57-.5.39-.31c.29-.22.58-.44.88-.64l.14-.09A16.54,16.54,0,0,1,25.37,54l.08,0a17.11,17.11,0,0,1,2.46-.88l.54-.13a15.18,15.18,0,0,1,2.63-.41c.29,0,.58,0,.87-.05h.87c.29,0,.58,0,.87.05a15.33,15.33,0,0,1,2.63.41l.54.13a17.11,17.11,0,0,1,2.46.88l.07,0a16.14,16.14,0,0,1,2.41,1.34l.14.09c.3.2.59.42.88.64l.39.31.57.5.32.3A16.92,16.92,0,0,1,47,60.79l.19.34c.21.38.41.76.6,1.16l.15.34a16,16,0,0,1,.86,2.47c.12.44.22.89.3,1.34s.14.85.18,1.27c0,.14,0,.27,0,.4l0,.47C49.35,68.87,49.36,69.16,49.36,69.45Z"/><path class="cls-1" d="M15.47,68h0Zm-.31-.16,0,0a2.33,2.33,0,0,0,.27.13l-.06,0Z"/><path class="cls-1" d="M15.16,67.88l.25.12-.21-.09Z"/><path class="cls-1" d="M15.48,68h0Z"/><path class="cls-1" d="M60.44,102.67v17.57c0,.36,0,.43-.33.43H4.66c-.35,0-.65-.07-.65-.43V102.67c0-.29,0-.57,0-.85A17.2,17.2,0,0,1,8.5,91l.23-.25a16.58,16.58,0,0,1,4.52-3.33l.31-.15c.46-.22.94-.41,1.43-.59l.32-.11c.44-.14.88-.27,1.33-.37a22,22,0,0,0,1.73,1.49,23.51,23.51,0,0,0,4.95,3l1,.41a22.6,22.6,0,0,0,4,1.13,22,22,0,0,0,4.06.37A22.21,22.21,0,0,0,37,92.11a3,3,0,0,1,.56-.12h.85a6.69,6.69,0,0,0,2.17-.86c.28-.11.56-.36.84-.48a19.85,19.85,0,0,0,3.91-2.36h0a.8.8,0,0,0,.4-.22A22.18,22.18,0,0,0,48,86.15a16.64,16.64,0,0,1,12.48,15.66C60.52,102.08,60.44,102.38,60.44,102.67Z"/><path class="cls-2" d="M37.37,110.84,43,120.67c1,0,22.41-.49,27.86-13,.68-1.55,3.47-7.85.23-12.55a10.14,10.14,0,0,0-6.36-4c-4.39-.94-9.59,2.09-11.71,5.82C53,92.6,50.7,87.4,45.54,86.18c-5.87-1.39-14,2.41-13.31,11.62C32.55,101.89,34.75,106.61,37.37,110.84Z"/><path class="cls-2" d="M63.18,90.87C64.85,87.41,68,81,68.13,80.52c.21-.71,14.26-11.53,16.5-11.11S104.71,72,104.71,72l22.35-29.19L145,55.12,107.42,81.35s-4.42,6.09-7.34,8.29S85.4,95.57,83.33,96.12s-12.85,5.82-15.93,5.39S65.23,97.3,67,96.82s9.45-4.49,9.45-4.49,5.42-2.22,7.5-6.66c1-2.06-.91-3.88-.91-3.88s-9.75,1.59-10.21,2.67c-.2.47-4,5.12-5.77,7.32a11.69,11.69,0,0,0-3.85-.91Z"/></svg>