<svg id="Layer_1" data-name="Layer 1" xmlns="http://www.w3.org/2000/svg" xmlns:xlink="http://www.w3.org/1999/xlink" viewBox="0 0 150 150"><defs><style>.cls-1{fill:none;}.cls-2{clip-path:url(#clip-path);}.cls-3{fill:#fbbc05;}.cls-4{fill:#ea4335;}.cls-5{fill:#34a853;}.cls-6{fill:#4285f4;}</style><clipPath id="clip-path"><path class="cls-1" d="M144.6,61.79H76.51V90h39.2c-3.66,17.94-18.94,28.24-39.2,28.24a43.19,43.19,0,0,1,0-86.37,42.26,42.26,0,0,1,26.91,9.64l21.26-21.26A73,73,0,1,0,76.51,148.15c36.54,0,69.76-26.57,69.76-73.08A60.44,60.44,0,0,0,144.6,61.79Z"/></clipPath></defs><title>15google</title><g class="cls-2"><path class="cls-3" d="M-3.21,118.26V31.89L53.26,75.07Z"/></g><g class="cls-2"><path class="cls-4" d="M-3.21,31.89,53.26,75.07,76.51,54.81l79.72-13V-4.64H-3.21Z"/></g><g class="cls-2"><path class="cls-5" d="M-3.21,118.26l99.65-76.4,26.24,3.32L156.23-4.64V154.79H-3.21Z"/></g><g class="cls-2"><path class="cls-6" d="M156.23,154.79l-103-79.72L40,65.11,156.23,31.89Z"/></g></svg>