<svg id="Layer_1" data-name="Layer 1" xmlns="http://www.w3.org/2000/svg" viewBox="0 0 150 150"><defs><style>.cls-1{fill:#989898;}</style></defs><title>15help</title><path class="cls-1" d="M8,77.17c0,8,0,16.09,0,24.13,0,5.61,3.13,7.58,11.8,7.64,1.87,0,3.75,0,5.61,0,6-.25,9.47-2.31,9.49-6.17q.21-25.58,0-51.15c0-3.85-3.52-5.93-9.49-6.17-2.23-.09-4.49-.06-6.73,0C11.45,45.53,8.1,47.63,8,52.31,7.94,60.6,8,68.88,8,77.17Z"/><path class="cls-1" d="M44,77.31c0,7.65-.07,15.3,0,23,.07,6,3.34,8.54,11,8.67,2.24,0,4.5.09,6.73,0,5.65-.34,9.12-2.86,9.16-7.35q.26-24.5,0-49c0-4.46-3.55-7-9.22-7.3-2.42-.13-4.86-.1-7.29,0C47.47,45.39,44.12,48,44,53.47,43.91,61.42,44,69.36,44,77.31Z"/><path class="cls-1" d="M107,77.19c0-6.92.1-13.83,0-20.74S103.5,46.2,96.59,46a70.71,70.71,0,0,0-7.28,0c-5.67.4-9.15,3.6-9.23,9.26q-.28,22.14,0,44.27c.07,5.69,3.52,8.92,9.17,9.32a64.08,64.08,0,0,0,7.84,0c6.29-.3,9.67-3.56,9.83-9.85C107.11,91.76,107,84.47,107,77.19Z"/><path class="cls-1" d="M142.94,76.94c0-5.75.15-11.5,0-17.23C142.65,51,139.32,46.44,133,46a52,52,0,0,0-7.28,0c-6,.44-9.53,4.84-9.69,13.12q-.34,18.39,0,36.8c.16,7.89,3.6,12.35,9.28,12.86a45.22,45.22,0,0,0,8.39,0c5.63-.56,8.87-5.11,9.15-13.07C143.11,89.48,142.93,83.2,142.94,76.94Z"/></svg>