<svg id="Layer_1" data-name="Layer 1" xmlns="http://www.w3.org/2000/svg" viewBox="0 0 150 150"><defs><style>.cls-1{fill:#989898;}</style></defs><title>15home</title><path class="cls-1" d="M5,75.52c1.14-1.33,2.19-2.79,3.43-4Q21.64,58.82,34.91,46.2c6.77-6.46,13.56-12.88,20.33-19.33,4.49-4.29,8.95-8.63,13.47-12.87a9.59,9.59,0,0,1,13.58.06c6.84,6.48,13.63,13,20.45,19.57a7.65,7.65,0,0,0,.63.49c0-.62.09-1.06.09-1.49,0-5.64,0-11.27,0-16.9,0-3.2.87-4.19,3.62-4.19h15.19c2.6,0,3.52,1.06,3.52,4.05q0,19.29,0,38.58a3,3,0,0,0,1,2.4q8.67,8.19,17.3,16.45a19,19,0,0,1,1.88,2.5v1.81c-1.84,2.59-3.67,5.19-5.52,7.76-1.6,2.22-3,2.42-5,.55-5.26-5-10.47-10-15.71-15L105.89,57.43,91.64,43.82Q84,36.47,76.29,29.1c-.6-.57-1-.59-1.63,0q-7,6.76-14,13.49L46.62,56,32.54,69.39l-15.71,15c-.61.58-1.19,1.19-1.84,1.71-1.47,1.19-2.81,1.1-4-.47-2.05-2.71-4-5.53-6-8.31Z"/><path class="cls-1" d="M86.66,139.67v-38.3c-.5,0-.87-.06-1.23-.06-6.64,0-13.29,0-19.93,0-1,0-1.26.3-1.26,1.44,0,11.74,0,23.48,0,35.23v1.82H31.42c-4.05,0-6.28-2.53-6.28-7.17q0-23.16,0-46.33a3.2,3.2,0,0,1,1.14-2.58c7.77-7.29,15.5-14.64,23.25-22Q59.73,52.07,70,42.42C71.8,40.71,73.6,39,75.46,37.2l8.12,7.67,23.51,22.2q9,8.52,18,17.08a2.52,2.52,0,0,1,.66,1.63q.06,23.75,0,47.49c0,3.82-2.3,6.47-5.6,6.48-11,.06-21.91,0-32.87,0A5.21,5.21,0,0,1,86.66,139.67Z"/></svg>