<svg id="Layer_1" data-name="Layer 1" xmlns="http://www.w3.org/2000/svg" viewBox="0 0 150 150"><defs><style>.cls-1{fill:#f2f2f2;}.cls-2{fill:#31af0e;}.cls-3{fill:#f7b239;}.cls-4{fill:#0c7aaa;}</style></defs><title>15india flag</title><path class="cls-1" d="M146,114.26c-47.67,19.32-95.33-19.33-143,0V33.74c47.67-19.32,95.33,19.33,143,0Z"/><path class="cls-2" d="M146,87.42v26.84c-47.67,19.32-95.33-19.33-143,0V87.42C50.67,68.1,98.33,106.74,146,87.42Z"/><path class="cls-3" d="M146,33.74V60.58C98.33,79.9,50.67,41.26,3,60.58V33.74C50.67,14.42,98.33,53.07,146,33.74Z"/><path class="cls-4" d="M80,72.39H76.19l2.68-2.68a1,1,0,0,0-1.37-1.36L74.82,71V67.24a1,1,0,1,0-1.93,0V71l-2.68-2.67a1,1,0,0,0-1.36,1.36l2.67,2.68H67.74a1,1,0,1,0,0,1.93h3.78L68.85,77a1,1,0,0,0,0,1.37.93.93,0,0,0,.68.28,1,1,0,0,0,.68-.28l2.68-2.68v3.79a1,1,0,0,0,1.93,0V75.69l2.68,2.68a1,1,0,0,0,.68.28A1,1,0,0,0,78.86,77l-2.67-2.68H80a1,1,0,1,0,0-1.93Z"/><path class="cls-4" d="M73.86,84.35a11,11,0,1,1,11-11A11,11,0,0,1,73.86,84.35Zm0-20.06a9.07,9.07,0,1,0,9.06,9.07A9.08,9.08,0,0,0,73.86,64.29Z"/></svg>