<svg id="Layer_1" data-name="Layer 1" xmlns="http://www.w3.org/2000/svg" viewBox="0 0 150 150"><defs><style>.cls-1{fill:#a4a4a5;}.cls-2{fill:#989898;}</style></defs><title>15my donation</title><path class="cls-1" d="M90.39,41.12c0,.54,0,1.07,0,1.6s-.06,1.06-.12,1.58c-.08.79-.19,1.56-.32,2.33s-.34,1.66-.55,2.47a30.72,30.72,0,0,1-1.58,4.53c-.09.21-.19.41-.28.62-.34.72-.71,1.43-1.1,2.13-.12.2-.23.41-.36.62a31.12,31.12,0,0,1-5.28,6.64l-.6.55c-.34.31-.69.61-1,.91l-.71.57c-.53.41-1.07.8-1.63,1.18l-.24.16c-.73.49-1.49,1-2.26,1.38s-1.42.75-2.16,1.08l-.13.06a31.51,31.51,0,0,1-4.52,1.62l-1,.25a30.51,30.51,0,0,1-4.81.75c-.53,0-1.06.07-1.6.08h-1.6c-.54,0-1.07,0-1.59-.08a30.45,30.45,0,0,1-4.82-.75l-1-.25a31.51,31.51,0,0,1-4.52-1.62l-.13-.06c-.66-.29-1.3-.61-1.93-1-.85-.47-1.69-1-2.49-1.51l-.24-.16c-.56-.38-1.1-.77-1.63-1.18l-.7-.57c-.36-.3-.71-.6-1-.91s-.75-.7-1.12-1.06A31.18,31.18,0,0,1,32.5,57l-.36-.62c-.39-.7-.76-1.41-1.09-2.13-.1-.21-.19-.41-.28-.62a30.76,30.76,0,0,1-1.59-4.53c-.21-.81-.4-1.63-.55-2.47s-.24-1.54-.32-2.33c0-.52-.09-1-.12-1.58s0-1.06,0-1.6.1-1.07.13-1.6c0-.33.16-.65.16-1h0c0-.2-.06-.4,0-.6s0-.39,0-.59c.07-.58.14-1.16.24-1.74.15-.83.32-1.66.53-2.47a31.37,31.37,0,0,1,1.58-4.52l.14-.32c0-.1.09-.2.14-.31.34-.72.7-1.43,1.09-2.12l.36-.62a31.22,31.22,0,0,1,5.29-6.64l.59-.56q.51-.47,1-.9c.23-.2.47-.39.7-.57.53-.41,1.07-.81,1.63-1.19l.24-.16a31.19,31.19,0,0,1,4.42-2.46l.13-.06a31.51,31.51,0,0,1,4.52-1.62l1-.25a31.65,31.65,0,0,1,4.82-.75c.52,0,1-.07,1.59-.08h1.6c.54,0,1.07,0,1.6.08a31.71,31.71,0,0,1,4.81.75l1,.25A31.51,31.51,0,0,1,72,12.71l.13.06a31.19,31.19,0,0,1,4.42,2.46l.24.16c.56.38,1.1.78,1.63,1.19.24.18.47.37.71.57s.7.59,1,.9l.59.55A31,31,0,0,1,86,25.25c.13.2.24.41.36.62.39.69.76,1.4,1.1,2.12l.28.63a30.2,30.2,0,0,1,1.58,4.52c.21.81.4,1.64.55,2.47s.24,1.54.32,2.33c0,.24,0,.49.07.73s0,.57,0,.85C90.38,40.05,90.39,40.58,90.39,41.12Z"/><path class="cls-1" d="M28.25,38.53h0Zm-.57-.28.09,0a2.36,2.36,0,0,0,.48.24l-.11-.06A4.91,4.91,0,0,0,27.68,38.25Z"/><path class="cls-1" d="M27.68,38.25a4.91,4.91,0,0,1,.46.22l-.37-.18Z"/><path class="cls-1" d="M28.27,38.54h0Z"/><path class="cls-1" d="M110.71,102v32.23c0,.66,0,.79-.6.79H8.43c-.63,0-1.19-.13-1.19-.79V102c0-.52,0-1,0-1.55a31.49,31.49,0,0,1,8.25-19.85c.14-.16.27-.31.42-.46a30.16,30.16,0,0,1,8.29-6.12l.56-.27c.86-.4,1.73-.76,2.62-1.08l.6-.2c.8-.26,1.61-.49,2.44-.68a41.07,41.07,0,0,0,3.16,2.74A42.74,42.74,0,0,0,42.65,80c.61.27,1.22.52,1.84.76a41.56,41.56,0,0,0,23.23,1.9,4.71,4.71,0,0,1,1-.21h1.54c1.35,0,2.67-1,4-1.58.52-.2,1-.66,1.55-.89A36.91,36.91,0,0,0,83,75.68h0c.25,0,.49-.23.74-.41A45.35,45.35,0,0,0,88,71.75c12.76,3,22.22,14.66,22.88,28.7C110.87,101,110.71,101.51,110.71,102Z"/><path class="cls-2" d="M80.32,123q5.18,9,10.37,18c1.77,0,41.08-.9,51.08-23.87,1.24-2.85,6.35-14.4.42-23a18.51,18.51,0,0,0-11.66-7.38c-8-1.73-17.59,3.82-21.47,10.67-.14-7.87-4.29-17.41-13.75-19.64-10.77-2.55-25.75,4.41-24.42,21.31C71.48,106.56,75.52,115.21,80.32,123Z"/></svg>