<svg id="Layer_1" data-name="Layer 1" xmlns="http://www.w3.org/2000/svg" viewBox="0 0 150 150"><defs><style>.cls-1,.cls-2{fill:#66676d;}.cls-2{fill-rule:evenodd;}</style></defs><title>15notification</title><path class="cls-1" d="M27.21,70.66c0-4.08,0-7.89.07-11.23,0-.12,0-.24,0-.36h0C29.44,40.7,39.75,28.33,52.89,22a52,52,0,0,1,44.67,0c13.11,6.36,23.4,18.69,25.58,37,0,.1,0,.21,0,.31l-2.21.08,2.2-.07c.12,3.38.1,7.26.08,11.41-.06,10.27-.12,22.26,2.05,32.54H25.17c2.16-10.28,2.1-22.26,2-32.54Zm99.2,37c2.61,8.81,7.35,15.79,15.89,18.38a2.21,2.21,0,0,1-.51,4.36H8.71A2.21,2.21,0,0,1,8,126l.63,2.12L8,126a20.45,20.45,0,0,0,10.49-7.1,33.09,33.09,0,0,0,5.53-11.31Z"/><path class="cls-2" d="M87.89,134.66H63.6c.19,3.06,1.51,6.74,3.55,8.78a12.17,12.17,0,0,0,17.2,0C86.39,141.4,87.71,137.72,87.89,134.66Z"/><path class="cls-2" d="M92.36,15.26a18.38,18.38,0,0,0-3.7-5.84,19.36,19.36,0,0,0-26.87,0,18.21,18.21,0,0,0-3.7,5.84,56.72,56.72,0,0,1,34.27,0Z"/></svg>