<svg id="Layer_1" data-name="Layer 1" xmlns="http://www.w3.org/2000/svg" viewBox="0 0 150 150"><defs><style>.cls-1{fill:#fff;}</style></defs><title>15user</title><path class="cls-1" d="M98.16,57.13c0,.5,0,1,0,1.5s-.06,1-.12,1.48c-.07.73-.18,1.46-.32,2.18a22.77,22.77,0,0,1-.54,2.31,27.07,27.07,0,0,1-1.55,4.23c-.09.2-.18.39-.28.58-.33.68-.69,1.34-1.07,2l-.35.58a30.05,30.05,0,0,1-5.2,6.22l-.58.51-1,.85-.7.53c-.52.39-1,.76-1.6,1.11l-.23.15c-.73.46-1.47.89-2.23,1.29s-1.4.7-2.12,1l-.13.06a30.13,30.13,0,0,1-4.44,1.51c-.32.09-.65.17-1,.24a32,32,0,0,1-4.74.7c-.52,0-1,.07-1.56.08H66.78c-.53,0-1,0-1.57-.08a32.1,32.1,0,0,1-4.73-.7c-.33-.07-.65-.15-1-.24a30.53,30.53,0,0,1-4.44-1.51l-.13-.06c-.64-.27-1.27-.57-1.89-.89-.84-.43-1.66-.9-2.45-1.41l-.24-.15q-.81-.53-1.59-1.11c-.24-.17-.47-.35-.7-.53l-1-.85c-.37-.32-.74-.65-1.09-1A29,29,0,0,1,41.25,72c-.12-.19-.24-.38-.35-.58-.39-.65-.75-1.31-1.08-2l-.27-.58A28.16,28.16,0,0,1,38,64.6q-.32-1.14-.54-2.31c-.13-.72-.24-1.45-.32-2.18-.05-.49-.09-1-.12-1.48s0-1,0-1.5.11-1,.14-1.5c0-.3.15-.6.15-.91h0a5.46,5.46,0,0,1,0-.57c0-.18,0-.36,0-.55.07-.54.13-1.09.24-1.62.14-.78.31-1.56.52-2.31a28.24,28.24,0,0,1,1.55-4.24l.14-.29c0-.1.09-.19.13-.29.34-.68.69-1.34,1.08-2,.11-.2.23-.39.35-.58a29.39,29.39,0,0,1,5.2-6.21l.58-.52,1-.85c.23-.18.46-.36.7-.53q.78-.59,1.59-1.11l.24-.15a29.46,29.46,0,0,1,4.34-2.3l.13-.06A31.78,31.78,0,0,1,59.5,29l1-.24a32.1,32.1,0,0,1,4.73-.7c.52,0,1-.06,1.57-.08h1.58c.52,0,1,0,1.56.08a32,32,0,0,1,4.74.7l1,.24a31.34,31.34,0,0,1,4.44,1.51l.13.06a30.08,30.08,0,0,1,4.35,2.3l.23.15c.55.35,1.08.72,1.6,1.11l.7.53,1,.85.57.51a29.79,29.79,0,0,1,5.21,6.22l.35.58c.38.65.74,1.31,1.07,2,.1.19.19.39.28.58a27.18,27.18,0,0,1,1.55,4.24A22.16,22.16,0,0,1,97.68,52c.14.71.25,1.44.32,2.17,0,.23,0,.46.07.69s0,.53.05.79C98.15,56.13,98.16,56.63,98.16,57.13Z"/><path class="cls-1" d="M37.07,54.71h0Zm-.55-.27.08,0a3.45,3.45,0,0,0,.47.23l-.1-.06Z"/><path class="cls-1" d="M36.52,54.44l.45.21-.37-.17Z"/><path class="cls-1" d="M37.09,54.72Z"/><path class="cls-1" d="M118.13,114.11v30.15c0,.62,0,.74-.59.74H17.59c-.62,0-1.17-.12-1.17-.74V114.11c0-.48,0-1,0-1.44a28.73,28.73,0,0,1,8.11-18.58l.41-.43a29.53,29.53,0,0,1,8.15-5.72l.55-.26c.84-.37,1.7-.71,2.58-1l.59-.19c.78-.25,1.58-.46,2.39-.64,1,.9,2,1.76,3.11,2.56a42.64,42.64,0,0,0,8.93,5.1c.6.25,1.2.49,1.81.71a40.85,40.85,0,0,0,7.19,1.94,42.36,42.36,0,0,0,7.31.64,41.94,41.94,0,0,0,8.33-.8,5.31,5.31,0,0,1,1-.2H78.4c1.32,0,2.63-1,3.92-1.47.51-.19,1-.62,1.52-.84a36.2,36.2,0,0,0,7-4h0a1.42,1.42,0,0,0,.73-.39,42.21,42.21,0,0,0,4.16-3.28,28.87,28.87,0,0,1,22.49,26.85C118.29,113.12,118.13,113.63,118.13,114.11Z"/><path class="cls-1" d="M130.68,45.44c-.18.05-.35.11-.53.15a2.78,2.78,0,0,1-3.54-3c.2-1.19.45-2.37.58-3.56a26.06,26.06,0,0,0-1.79-12.43,26.58,26.58,0,0,0-3.48-6.19A28.77,28.77,0,0,0,107,10c-.88-.27-1.78-.45-2.66-.69a2.65,2.65,0,0,1-1.56-4.11,6.31,6.31,0,0,1,.55-.61l.53-.33.18,0a3,3,0,0,1,1.69-.14A35.77,35.77,0,0,1,117,8.55a33.79,33.79,0,0,1,9.2,8.25l.71.9,1.2,1.79c.05.09.08.18.13.27a31.75,31.75,0,0,1,3.94,23.69,2.77,2.77,0,0,1-.91,1.56.61.61,0,0,0-.07.1Z"/><path class="cls-1" d="M118.79,23.37c4,6.17,5.2,12.37,3.74,19a2.65,2.65,0,0,1-2,2.1,2.79,2.79,0,0,1-2.81-.69,2.52,2.52,0,0,1-.75-2.53,19.06,19.06,0,0,0,.45-3.6,18.44,18.44,0,0,0-1.62-8.14,18.92,18.92,0,0,0-2.71-4.38,20.36,20.36,0,0,0-11.32-6.95,3.65,3.65,0,0,1-1.74-.79,2.62,2.62,0,0,1-.54-3.17,2.83,2.83,0,0,1,3-1.41,26.32,26.32,0,0,1,14.23,8C117.57,21.78,118.31,22.77,118.79,23.37Z"/><path class="cls-1" d="M110.54,29.32a14.31,14.31,0,0,1,1.95,11.11,2.83,2.83,0,0,1-3.34,2.11,2.69,2.69,0,0,1-2.22-3.15,9.28,9.28,0,0,0-.41-5.61,10,10,0,0,0-7-6.05,3.81,3.81,0,0,1-1.74-.8,2.63,2.63,0,0,1-.55-3.14,2.85,2.85,0,0,1,3-1.44A15.61,15.61,0,0,1,104.77,24,16,16,0,0,1,110.54,29.32Z"/></svg>