<svg id="Layer_1" data-name="Layer 1" xmlns="http://www.w3.org/2000/svg" viewBox="0 0 150 150"><defs><style>.cls-1{fill:#fff;}</style></defs><title>15watch</title><path class="cls-1" d="M75.31,4a70.55,70.55,0,1,0,70.44,70.66A70.56,70.56,0,0,0,75.31,4ZM75.2,133.72a59.19,59.19,0,1,1,59.17-59A59.19,59.19,0,0,1,75.2,133.72Z"/><path class="cls-1" d="M71.44,63.49c1.48,2.61,1.9,5.29,5.62,5.64,2.9.27,5,4.16,3.7,6.8-1.63,3.38.56,5.06,2,7.47l30.56-29.84-.42-.83Z"/><path class="cls-1" d="M73.43,80c-2.91-.28-5.08-4.09-3.83-6.74,1.58-3.35-.42-5.11-2-7.6L37,95.59c.14.26.28.52.43.78L78.87,85.64C77.55,83,77.14,80.36,73.43,80Z"/><rect class="cls-1" x="73.71" y="21.5" width="2.98" height="7.24" rx="1.49" ry="1.49"/><path class="cls-1" d="M109.61,42.49l3-3a1.49,1.49,0,0,0-2.11-2.11l-3,3a1.49,1.49,0,0,0,2.11,2.11Z"/><path class="cls-1" d="M126.36,73.56H122.1a1.49,1.49,0,1,0,0,3h4.26a1.49,1.49,0,0,0,0-3Z"/><path class="cls-1" d="M109,107.35a1.5,1.5,0,0,0-2.11,0h0a1.5,1.5,0,0,0,0,2.11l3,3a1.49,1.49,0,0,0,2.11-2.11Z"/><path class="cls-1" d="M74.3,120.46A1.49,1.49,0,0,0,72.81,122v4.26a1.49,1.49,0,0,0,3,0V122A1.49,1.49,0,0,0,74.3,120.46Z"/><path class="cls-1" d="M39.89,106.71l-3,3A1.49,1.49,0,1,0,39,111.83l3-3a1.49,1.49,0,1,0-2.11-2.11Z"/><path class="cls-1" d="M27.4,72.66H23.14a1.49,1.49,0,0,0,0,3H27.4a1.49,1.49,0,0,0,0-3Z"/><path class="cls-1" d="M40.53,41.85a1.49,1.49,0,0,0,2.11-2.1l-3-3a1.5,1.5,0,0,0-2.11,0h0a1.5,1.5,0,0,0,0,2.11Z"/></svg>